<?xml version="1.0" encoding="utf-8"?>
<!-- Generator: Adobe Illustrator 18.1.1, SVG Export Plug-In . SVG Version: 6.00 Build 0)  -->
<svg version="1.1" id="Capa_1" xmlns="http://www.w3.org/2000/svg" xmlns:xlink="http://www.w3.org/1999/xlink" x="0px" y="0px"
	 viewBox="0 0 50 50" enable-background="new 0 0 50 50" xml:space="preserve">
<path fill="#039FB2" stroke="#FFFFFF" stroke-miterlimit="10" d="M21.7,33.4c0.9,1,2,1.4,3.4,1.4h9.5c1.3,0,2.4,0.5,3.4,1.5
	c0.9,1,1.4,2.1,1.4,3.5c0,1.4-0.5,2.5-1.4,3.5c-0.9,1-2.1,1.5-3.4,1.5H25c-4,0-7.3-1.4-10.1-4.3c-2.8-2.9-4.2-6.4-4.2-10.5V10.2
	c0-1.4,0.5-2.6,1.4-3.5c0.9-1,2.1-1.4,3.4-1.4c1.3,0,2.4,0.5,3.4,1.5c0.9,1,1.4,2.1,1.4,3.5v5h14.2c1.3,0,2.5,0.5,3.4,1.5
	c0.9,1,1.4,2.1,1.4,3.5c0,1.4-0.5,2.5-1.4,3.5c-0.9,1-2.1,1.5-3.4,1.5H20.3V30C20.3,31.3,20.7,32.5,21.7,33.4z"/>
</svg>
